<?xml version="1.0" encoding="UTF-8" standalone="no"?>
<svg
   xmlns:dc="http://purl.org/dc/elements/1.1/"
   xmlns:cc="http://creativecommons.org/ns#"
   xmlns:rdf="http://www.w3.org/1999/02/22-rdf-syntax-ns#"
   xmlns:svg="http://www.w3.org/2000/svg"
   xmlns="http://www.w3.org/2000/svg"
   xmlns:sodipodi="http://sodipodi.sourceforge.net/DTD/sodipodi-0.dtd"
   xmlns:inkscape="http://www.inkscape.org/namespaces/inkscape"
   inkscape:version="1.0 (4035a4fb49, 2020-05-01)"
   sodipodi:docname="home.svg"
   id="svg20"
   version="1.1"
   viewBox="0 0 29.000002 28"
   height="28"
   width="29.000002">
  <metadata
     id="metadata26">
    <rdf:RDF>
      <cc:Work
         rdf:about="">
        <dc:format>image/svg+xml</dc:format>
        <dc:type
           rdf:resource="http://purl.org/dc/dcmitype/StillImage" />
        <dc:title></dc:title>
      </cc:Work>
    </rdf:RDF>
  </metadata>
  <defs
     id="defs24" />
  <sodipodi:namedview
     inkscape:current-layer="g18"
     inkscape:window-maximized="1"
     inkscape:window-y="-9"
     inkscape:window-x="-9"
     inkscape:cy="100"
     inkscape:cx="14.999877"
     inkscape:zoom="4.5818182"
     fit-margin-bottom="0"
     fit-margin-right="0"
     fit-margin-left="0"
     fit-margin-top="0"
     showgrid="false"
     id="namedview22"
     inkscape:window-height="1373"
     inkscape:window-width="2560"
     inkscape:pageshadow="2"
     inkscape:pageopacity="0"
     guidetolerance="10"
     gridtolerance="10"
     objecttolerance="10"
     borderopacity="1"
     bordercolor="#666666"
     pagecolor="#ffffff" />
  <g
     transform="translate(-10.000123,-10)"
     id="g18"
     fill-rule="evenodd"
     fill="none">
    <path
       id="path12"
       d="M 38.221,22.179 38.219,22.177 26.389,10.755 C 25.883,10.268 25.212,10 24.5,10 c -0.713,0 -1.383,0.268 -1.888,0.755 l -11.825,11.416 -0.012,0.011 c -1.035,1.006 -1.033,2.637 0.005,3.64 0.475,0.459 1.102,0.724 1.772,0.752 0.027,0.003 0.055,0.004 0.083,0.004 h 0.47 v 8.405 c 0,1.664 1.403,3.017 3.126,3.017 h 4.629 c 0.469,0 0.85,-0.367 0.85,-0.82 v -6.59 c 0,-0.76 0.639,-1.377 1.425,-1.377 h 2.73 c 0.786,0 1.426,0.618 1.426,1.377 v 6.59 c 0,0.453 0.38,0.82 0.85,0.82 h 4.628 c 1.723,0 3.125,-1.353 3.125,-3.017 v -8.405 h 0.438 c 0.712,0 1.383,-0.268 1.888,-0.755 1.04,-1.005 1.04,-2.64 10e-4,-3.644 z m -1.203,2.484 c -0.184,0.177 -0.427,0.274 -0.686,0.274 h -1.287 c -0.47,0 -0.85,0.368 -0.85,0.82 v 9.226 c 0,0.759 -0.64,1.376 -1.426,1.376 H 28.99 v -5.77 c 0,-1.663 -1.402,-3.016 -3.125,-3.016 h -2.73 c -1.723,0 -3.125,1.353 -3.125,3.017 v 5.77 h -3.78 c -0.785,0 -1.425,-0.618 -1.425,-1.377 v -9.225 c 0,-0.453 -0.38,-0.82 -0.85,-0.82 h -1.264 l -0.04,-0.002 c -0.253,-0.005 -0.49,-0.102 -0.669,-0.274 -0.378,-0.365 -0.378,-0.96 0,-1.325 h 0.002 l 11.83,-11.422 c 0.183,-0.177 0.427,-0.274 0.686,-0.274 0.26,0 0.503,0.097 0.686,0.274 l 11.828,11.419 0.006,0.005 c 0.376,0.366 0.375,0.959 -0.002,1.324 z"
       fill-rule="nonzero"
       fill="#1d1c1b" />
  </g>
</svg>
