<?xml version="1.0" encoding="UTF-8" standalone="no"?>
<svg
   xmlns:dc="http://purl.org/dc/elements/1.1/"
   xmlns:cc="http://creativecommons.org/ns#"
   xmlns:rdf="http://www.w3.org/1999/02/22-rdf-syntax-ns#"
   xmlns:svg="http://www.w3.org/2000/svg"
   xmlns="http://www.w3.org/2000/svg"
   xmlns:sodipodi="http://sodipodi.sourceforge.net/DTD/sodipodi-0.dtd"
   xmlns:inkscape="http://www.inkscape.org/namespaces/inkscape"
   inkscape:version="1.0 (4035a4fb49, 2020-05-01)"
   sodipodi:docname="instagram.svg"
   id="svg18"
   version="1.1"
   viewBox="0 0 24 24"
   height="24"
   width="24">
  <metadata
     id="metadata24">
    <rdf:RDF>
      <cc:Work
         rdf:about="">
        <dc:format>image/svg+xml</dc:format>
        <dc:type
           rdf:resource="http://purl.org/dc/dcmitype/StillImage" />
        <dc:title></dc:title>
      </cc:Work>
    </rdf:RDF>
  </metadata>
  <defs
     id="defs22" />
  <sodipodi:namedview
     inkscape:current-layer="svg18"
     inkscape:window-maximized="1"
     inkscape:window-y="-9"
     inkscape:window-x="-9"
     inkscape:cy="12"
     inkscape:cx="12"
     inkscape:zoom="20.16"
     fit-margin-bottom="0"
     fit-margin-right="0"
     fit-margin-left="0"
     fit-margin-top="0"
     showgrid="false"
     id="namedview20"
     inkscape:window-height="1373"
     inkscape:window-width="2560"
     inkscape:pageshadow="2"
     inkscape:pageopacity="0"
     guidetolerance="10"
     gridtolerance="10"
     objecttolerance="10"
     borderopacity="1"
     bordercolor="#666666"
     pagecolor="#ffffff" />
  <g
     transform="translate(-13,-13)"
     id="g16"
     fill-rule="evenodd"
     fill="none">
    <g
       id="g14">
      <g
         id="g12"
         transform="translate(1,1)">
        <g
           id="g10"
           fill-rule="nonzero"
           fill="#000000">
          <path
             id="path4"
             transform="translate(12,12)"
             d="M 17.503,0 H 6.497 C 2.914,0 0,2.914 0,6.497 V 17.504 C 0,21.086 2.914,24 6.497,24 H 17.504 C 21.086,24 24,21.086 24,17.504 V 6.497 C 24,2.914 21.086,0 17.503,0 Z m 5.09,17.504 c 0,2.806 -2.283,5.089 -5.09,5.089 H 6.497 c -2.807,0 -5.09,-2.283 -5.09,-5.09 V 6.498 c 0,-2.807 2.283,-5.09 5.09,-5.09 h 11.007 c 2.806,0 5.089,2.283 5.089,5.09 v 11.007 z" />
          <path
             id="path6"
             transform="translate(12,12)"
             d="m 12,5 c -3.86,0 -7,3.14 -7,7 0,3.86 3.14,7 7,7 3.86,0 7,-3.14 7,-7 0,-3.86 -3.14,-7 -7,-7 z m 0,12.5 C 8.968,17.5 6.5,15.032 6.5,12 6.5,8.968 8.969,6.5 12,6.5 c 3.031,0 5.5,2.468 5.5,5.5 0,3.032 -2.468,5.5 -5.5,5.5 z" />
          <path
             id="path8"
             transform="translate(12,12)"
             d="M 18.5,4 C 17.673,4 17,4.673 17,5.5 17,6.327 17.673,7 18.5,7 19.327,7 20,6.327 20,5.5 20,4.673 19.327,4 18.5,4 Z m 0,1.912 c -0.227,0 -0.412,-0.185 -0.412,-0.412 0,-0.227 0.185,-0.412 0.412,-0.412 0.227,0 0.412,0.185 0.412,0.412 0,0.227 -0.185,0.412 -0.412,0.412 z" />
        </g>
      </g>
    </g>
  </g>
</svg>
