<svg xmlns="http://www.w3.org/2000/svg" width="29" height="19" viewBox="0 0 29 19">
    <g fill="none" fill-rule="evenodd">
        <g fill="#000" fill-rule="nonzero">
            <g>
                <g>
                    <g>
                        <path d="M25.548 0H3.452C1.546 0 .001 1.484 0 3.314v12.372C0 17.516 1.546 19 3.452 19h22.096c1.906 0 3.451-1.484 3.452-3.314V3.314C29 1.484 27.454 0 25.548 0zM3.452 1.325h22.096c.994.003 1.848.68 2.037 1.617L14.5 9.941 1.415 2.942c.19-.937 1.043-1.614 2.037-1.617zm22.096 16.343H3.452c-1.142-.003-2.068-.891-2.071-1.988V4.44l12.78 6.84c.104.054.22.084.339.086.119 0 .236-.029.338-.087L27.62 4.44v11.24c0 1.098-.928 1.987-2.071 1.988z" transform="translate(-139.000000, -702.000000) translate(129.000000, 517.000000) translate(0.000000, 170.000000) translate(10.000000, 15.000000)"/>
                    </g>
                </g>
            </g>
        </g>
    </g>
</svg>
